<svg xmlns="http://www.w3.org/2000/svg" width="176.26" height="35" viewBox="0 0 176.26 35"><rect class="svg__rect" x="0" y="0" width="97.71000000000001" height="35" fill="#E4D217"/><rect class="svg__rect" x="95.71000000000001" y="0" width="80.54999999999998" height="35" fill="#E46C17"/><path class="svg__text" d="M17.33 22L14.22 22L14.22 13.47L17.14 13.47Q18.59 13.47 19.34 14.05Q20.10 14.63 20.10 15.78L20.10 15.78Q20.10 16.36 19.78 16.83Q19.47 17.30 18.86 17.56L18.86 17.56Q19.55 17.75 19.93 18.26Q20.31 18.78 20.31 19.51L20.31 19.51Q20.31 20.71 19.53 21.36Q18.76 22 17.33 22L17.33 22ZM15.70 18.15L15.70 20.82L17.35 20.82Q18.04 20.82 18.44 20.47Q18.83 20.13 18.83 19.51L18.83 19.51Q18.83 18.18 17.47 18.15L17.47 18.15L15.70 18.15ZM15.70 14.66L15.70 17.06L17.15 17.06Q17.84 17.06 18.23 16.75Q18.62 16.43 18.62 15.86L18.62 15.86Q18.62 15.23 18.26 14.95Q17.90 14.66 17.14 14.66L17.14 14.66L15.70 14.66ZM24.64 19.16L24.64 19.16L24.64 13.47L26.12 13.47L26.12 19.18Q26.12 20.03 26.55 20.48Q26.98 20.93 27.83 20.93L27.83 20.93Q29.54 20.93 29.54 19.13L29.54 19.13L29.54 13.47L31.02 13.47L31.02 19.17Q31.02 20.53 30.15 21.32Q29.28 22.12 27.83 22.12L27.83 22.12Q26.36 22.12 25.50 21.33Q24.64 20.55 24.64 19.16ZM37.15 22L35.67 22L35.67 13.47L37.15 13.47L37.15 22ZM47.32 22L41.96 22L41.96 13.47L43.44 13.47L43.44 20.82L47.32 20.82L47.32 22ZM53.12 14.66L50.49 14.66L50.49 13.47L57.25 13.47L57.25 14.66L54.59 14.66L54.59 22L53.12 22L53.12 14.66ZM70.10 22L66.99 22L66.99 13.47L69.91 13.47Q71.36 13.47 72.11 14.05Q72.87 14.63 72.87 15.78L72.87 15.78Q72.87 16.36 72.55 16.83Q72.24 17.30 71.63 17.56L71.63 17.56Q72.32 17.75 72.70 18.26Q73.07 18.78 73.07 19.51L73.07 19.51Q73.07 20.71 72.30 21.36Q71.53 22 70.10 22L70.10 22ZM68.47 18.15L68.47 20.82L70.12 20.82Q70.81 20.82 71.21 20.47Q71.60 20.13 71.60 19.51L71.60 19.51Q71.60 18.18 70.24 18.15L70.24 18.15L68.47 18.15ZM68.47 14.66L68.47 17.06L69.92 17.06Q70.61 17.06 71.00 16.75Q71.39 16.43 71.39 15.86L71.39 15.86Q71.39 15.23 71.03 14.95Q70.67 14.66 69.91 14.66L69.91 14.66L68.47 14.66ZM79.58 18.86L76.72 13.47L78.37 13.47L80.33 17.51L82.29 13.47L83.93 13.47L81.07 18.86L81.07 22L79.58 22L79.58 18.86Z" fill="#FFFFFF"/><path class="svg__text" d="M112.28 22L109.90 22L109.90 13.60L116.49 13.60L116.49 15.44L112.28 15.44L112.28 17.28L115.99 17.28L115.99 19.12L112.28 19.12L112.28 22ZM127.47 22L121.08 22L121.08 13.60L123.46 13.60L123.46 20.11L127.47 20.11L127.47 22ZM133.31 22L130.88 22L134.59 13.60L136.93 13.60L140.65 22L138.18 22L137.52 20.37L133.97 20.37L133.31 22ZM135.74 15.93L134.66 18.61L136.82 18.61L135.74 15.93ZM144.22 21.24L144.22 21.24L145.00 19.49Q145.56 19.86 146.30 20.09Q147.05 20.32 147.77 20.32L147.77 20.32Q149.13 20.32 149.14 19.64L149.14 19.64Q149.14 19.28 148.75 19.11Q148.36 18.93 147.49 18.74L147.49 18.74Q146.54 18.53 145.91 18.30Q145.27 18.06 144.82 17.55Q144.36 17.03 144.36 16.16L144.36 16.16Q144.36 15.39 144.78 14.77Q145.20 14.15 146.04 13.79Q146.87 13.43 148.08 13.43L148.08 13.43Q148.90 13.43 149.71 13.62Q150.52 13.80 151.13 14.17L151.13 14.17L150.40 15.93Q149.20 15.28 148.07 15.28L148.07 15.28Q147.36 15.28 147.03 15.49Q146.71 15.70 146.71 16.04L146.71 16.04Q146.71 16.37 147.10 16.54Q147.48 16.71 148.33 16.89L148.33 16.89Q149.29 17.10 149.92 17.33Q150.55 17.56 151.01 18.07Q151.48 18.58 151.48 19.46L151.48 19.46Q151.48 20.21 151.06 20.83Q150.64 21.44 149.80 21.80Q148.96 22.17 147.76 22.17L147.76 22.17Q146.74 22.17 145.77 21.92Q144.81 21.67 144.22 21.24ZM158.41 22L156.05 22L156.05 13.60L158.41 13.60L158.41 17.09L161.66 13.60L164.27 13.60L160.85 17.32L164.45 22L161.69 22L159.29 18.95L158.41 19.90L158.41 22Z" fill="#FFFFFF" x="108.71000000000001"/></svg>