<svg xmlns="http://www.w3.org/2000/svg" width="261.67999999999995" height="35" viewBox="0 0 261.67999999999995 35"><rect class="svg__rect" x="0" y="0" width="131.39" height="35" fill="#F96D84"/><rect class="svg__rect" x="129.39" y="0" width="132.29" height="35" fill="#EA4560"/><path class="svg__text" d="M16.67 22L14.22 22L14.22 13.47L16.74 13.47Q17.87 13.47 18.74 13.97Q19.62 14.48 20.10 15.40Q20.58 16.33 20.58 17.52L20.58 17.52L20.58 17.95Q20.58 19.16 20.10 20.08Q19.61 21.00 18.72 21.50Q17.83 22 16.67 22L16.67 22ZM15.70 14.66L15.70 20.82L16.67 20.82Q17.83 20.82 18.46 20.09Q19.08 19.36 19.09 17.99L19.09 17.99L19.09 17.52Q19.09 16.13 18.49 15.40Q17.89 14.66 16.74 14.66L16.74 14.66L15.70 14.66ZM30.62 22L25.05 22L25.05 13.47L30.58 13.47L30.58 14.66L26.53 14.66L26.53 17.02L30.03 17.02L30.03 18.19L26.53 18.19L26.53 20.82L30.62 20.82L30.62 22ZM34.39 19.42L34.39 19.42L35.87 19.42Q35.87 20.15 36.35 20.55Q36.83 20.95 37.73 20.95L37.73 20.95Q38.50 20.95 38.89 20.63Q39.28 20.32 39.28 19.80L39.28 19.80Q39.28 19.24 38.88 18.94Q38.49 18.63 37.46 18.32Q36.42 18.01 35.81 17.63L35.81 17.63Q34.65 16.90 34.65 15.72L34.65 15.72Q34.65 14.69 35.49 14.02Q36.33 13.35 37.67 13.35L37.67 13.35Q38.56 13.35 39.26 13.68Q39.96 14.01 40.36 14.61Q40.75 15.22 40.75 15.96L40.75 15.96L39.28 15.96Q39.28 15.29 38.86 14.91Q38.44 14.54 37.66 14.54L37.66 14.54Q36.93 14.54 36.53 14.85Q36.13 15.16 36.13 15.71L36.13 15.71Q36.13 16.18 36.56 16.50Q37.00 16.81 37.99 17.10Q38.99 17.40 39.59 17.78Q40.20 18.16 40.48 18.65Q40.76 19.13 40.76 19.79L40.76 19.79Q40.76 20.86 39.94 21.49Q39.13 22.12 37.73 22.12L37.73 22.12Q36.80 22.12 36.02 21.77Q35.25 21.43 34.82 20.83Q34.39 20.22 34.39 19.42ZM46.61 22L45.14 22L45.14 13.47L46.61 13.47L46.61 22ZM51.18 18.13L51.18 18.13L51.18 17.46Q51.18 15.53 52.10 14.44Q53.03 13.35 54.69 13.35L54.69 13.35Q56.11 13.35 56.95 14.05Q57.79 14.76 57.96 16.08L57.96 16.08L56.50 16.08Q56.26 14.54 54.72 14.54L54.72 14.54Q53.72 14.54 53.20 15.26Q52.68 15.98 52.67 17.37L52.67 17.37L52.67 18.02Q52.67 19.40 53.25 20.17Q53.83 20.93 54.87 20.93L54.87 20.93Q56.01 20.93 56.49 20.42L56.49 20.42L56.49 18.75L54.73 18.75L54.73 17.62L57.96 17.62L57.96 20.89Q57.50 21.50 56.68 21.81Q55.86 22.12 54.82 22.12L54.82 22.12Q53.74 22.12 52.92 21.63Q52.09 21.14 51.64 20.24Q51.20 19.33 51.18 18.13ZM64.06 22L62.58 22L62.58 13.47L64.06 13.47L67.88 19.54L67.88 13.47L69.35 13.47L69.35 22L67.87 22L64.06 15.95L64.06 22ZM79.67 22L74.09 22L74.09 13.47L79.63 13.47L79.63 14.66L75.57 14.66L75.57 17.02L79.07 17.02L79.07 18.19L75.57 18.19L75.57 20.82L79.67 20.82L79.67 22ZM86.32 22L83.86 22L83.86 13.47L86.38 13.47Q87.51 13.47 88.39 13.97Q89.26 14.48 89.74 15.40Q90.22 16.33 90.22 17.52L90.22 17.52L90.22 17.95Q90.22 19.16 89.74 20.08Q89.26 21.00 88.36 21.50Q87.47 22 86.32 22L86.32 22ZM85.34 14.66L85.34 20.82L86.31 20.82Q87.48 20.82 88.10 20.09Q88.72 19.36 88.74 17.99L88.74 17.99L88.74 17.52Q88.74 16.13 88.13 15.40Q87.53 14.66 86.38 14.66L86.38 14.66L85.34 14.66ZM103.78 22L100.67 22L100.67 13.47L103.59 13.47Q105.04 13.47 105.79 14.05Q106.55 14.63 106.55 15.78L106.55 15.78Q106.55 16.36 106.23 16.83Q105.92 17.30 105.31 17.56L105.31 17.56Q106.00 17.75 106.38 18.26Q106.75 18.78 106.75 19.51L106.75 19.51Q106.75 20.71 105.98 21.36Q105.21 22 103.78 22L103.78 22ZM102.15 18.15L102.15 20.82L103.80 20.82Q104.49 20.82 104.89 20.47Q105.28 20.13 105.28 19.51L105.28 19.51Q105.28 18.18 103.92 18.15L103.92 18.15L102.15 18.15ZM102.15 14.66L102.15 17.06L103.60 17.06Q104.29 17.06 104.68 16.75Q105.07 16.43 105.07 15.86L105.07 15.86Q105.07 15.23 104.71 14.95Q104.35 14.66 103.59 14.66L103.59 14.66L102.15 14.66ZM113.26 18.86L110.40 13.47L112.05 13.47L114.01 17.51L115.97 13.47L117.61 13.47L114.75 18.86L114.75 22L113.26 22L113.26 18.86Z" fill="#FFFFFF"/><path class="svg__text" d="M148.12 22L143.58 22L143.58 13.60L147.88 13.60Q149.48 13.60 150.32 14.19Q151.17 14.79 151.17 15.79L151.17 15.79Q151.17 16.39 150.87 16.87Q150.57 17.34 150.03 17.62L150.03 17.62Q150.76 17.87 151.16 18.41Q151.57 18.94 151.57 19.70L151.57 19.70Q151.57 20.80 150.68 21.40Q149.79 22 148.12 22L148.12 22ZM145.93 18.58L145.93 20.28L147.93 20.28Q149.17 20.28 149.17 19.43L149.17 19.43Q149.17 18.58 147.93 18.58L147.93 18.58L145.93 18.58ZM145.93 15.31L145.93 16.94L147.56 16.94Q148.76 16.94 148.76 16.12L148.76 16.12Q148.76 15.31 147.56 15.31L147.56 15.31L145.93 15.31ZM155.86 17.80L155.86 17.80Q155.86 16.55 156.46 15.55Q157.07 14.56 158.13 14.00Q159.19 13.43 160.52 13.43L160.52 13.43Q161.85 13.43 162.92 14.00Q163.98 14.56 164.59 15.55Q165.19 16.55 165.19 17.80L165.19 17.80Q165.19 19.05 164.59 20.04Q163.98 21.04 162.92 21.60Q161.86 22.17 160.52 22.17L160.52 22.17Q159.19 22.17 158.13 21.60Q157.07 21.04 156.46 20.04Q155.86 19.05 155.86 17.80ZM158.26 17.80L158.26 17.80Q158.26 18.51 158.56 19.05Q158.86 19.60 159.37 19.90Q159.89 20.20 160.52 20.20L160.52 20.20Q161.16 20.20 161.68 19.90Q162.19 19.60 162.49 19.05Q162.79 18.51 162.79 17.80L162.79 17.80Q162.79 17.09 162.49 16.54Q162.19 16 161.68 15.70Q161.16 15.40 160.52 15.40L160.52 15.40Q159.88 15.40 159.37 15.70Q158.86 16 158.56 16.54Q158.26 17.09 158.26 17.80ZM169.49 17.80L169.49 17.80Q169.49 16.55 170.10 15.55Q170.70 14.56 171.76 14.00Q172.83 13.43 174.16 13.43L174.16 13.43Q175.49 13.43 176.55 14.00Q177.61 14.56 178.22 15.55Q178.83 16.55 178.83 17.80L178.83 17.80Q178.83 19.05 178.22 20.04Q177.61 21.04 176.55 21.60Q175.49 22.17 174.16 22.17L174.16 22.17Q172.83 22.17 171.76 21.60Q170.70 21.04 170.10 20.04Q169.49 19.05 169.49 17.80ZM171.89 17.80L171.89 17.80Q171.89 18.51 172.19 19.05Q172.49 19.60 173.01 19.90Q173.53 20.20 174.16 20.20L174.16 20.20Q174.80 20.20 175.31 19.90Q175.83 19.60 176.13 19.05Q176.43 18.51 176.43 17.80L176.43 17.80Q176.43 17.09 176.13 16.54Q175.83 16 175.31 15.70Q174.80 15.40 174.16 15.40L174.16 15.40Q173.52 15.40 173.01 15.70Q172.49 16 172.19 16.54Q171.89 17.09 171.89 17.80ZM185.35 15.48L182.77 15.48L182.77 13.60L190.29 13.60L190.29 15.48L187.72 15.48L187.72 22L185.35 22L185.35 15.48ZM194.07 21.24L194.07 21.24L194.85 19.49Q195.42 19.86 196.16 20.09Q196.90 20.32 197.62 20.32L197.62 20.32Q198.99 20.32 199.00 19.64L199.00 19.64Q199.00 19.28 198.61 19.11Q198.22 18.93 197.35 18.74L197.35 18.74Q196.40 18.53 195.76 18.30Q195.13 18.06 194.67 17.55Q194.22 17.03 194.22 16.16L194.22 16.16Q194.22 15.39 194.64 14.77Q195.06 14.15 195.89 13.79Q196.73 13.43 197.94 13.43L197.94 13.43Q198.76 13.43 199.57 13.62Q200.37 13.80 200.99 14.17L200.99 14.17L200.26 15.93Q199.05 15.28 197.92 15.28L197.92 15.28Q197.21 15.28 196.89 15.49Q196.57 15.70 196.57 16.04L196.57 16.04Q196.57 16.37 196.95 16.54Q197.34 16.71 198.19 16.89L198.19 16.89Q199.15 17.10 199.78 17.33Q200.41 17.56 200.87 18.07Q201.33 18.58 201.33 19.46L201.33 19.46Q201.33 20.21 200.91 20.83Q200.50 21.44 199.66 21.80Q198.81 22.17 197.61 22.17L197.61 22.17Q196.59 22.17 195.63 21.92Q194.67 21.67 194.07 21.24ZM207.70 15.48L205.12 15.48L205.12 13.60L212.64 13.60L212.64 15.48L210.08 15.48L210.08 22L207.70 22L207.70 15.48ZM219.39 22L217.01 22L217.01 13.60L220.86 13.60Q222.00 13.60 222.84 13.98Q223.68 14.35 224.13 15.06Q224.59 15.76 224.59 16.71L224.59 16.71Q224.59 17.62 224.16 18.30Q223.73 18.98 222.94 19.36L222.94 19.36L224.75 22L222.21 22L220.69 19.77L219.39 19.77L219.39 22ZM219.39 15.47L219.39 17.93L220.71 17.93Q221.44 17.93 221.82 17.61Q222.19 17.29 222.19 16.71L222.19 16.71Q222.19 16.12 221.82 15.79Q221.44 15.47 220.71 15.47L220.71 15.47L219.39 15.47ZM230.79 22L228.37 22L232.08 13.60L234.42 13.60L238.14 22L235.67 22L235.01 20.37L231.46 20.37L230.79 22ZM233.23 15.93L232.15 18.61L234.31 18.61L233.23 15.93ZM244.67 22L242.29 22L242.29 13.60L246.13 13.60Q247.27 13.60 248.11 13.98Q248.95 14.35 249.41 15.06Q249.87 15.76 249.87 16.71L249.87 16.71Q249.87 17.66 249.41 18.35Q248.95 19.05 248.11 19.42Q247.27 19.80 246.13 19.80L246.13 19.80L244.67 19.80L244.67 22ZM244.67 15.47L244.67 17.93L245.99 17.93Q246.72 17.93 247.09 17.61Q247.46 17.29 247.46 16.71L247.46 16.71Q247.46 16.12 247.09 15.80Q246.72 15.47 245.99 15.47L245.99 15.47L244.67 15.47Z" fill="#FFFFFF" x="142.39"/></svg>